# xmcd
#
# Track frame offsets:
#	150
#	15552
#	32806
#	46039
#	61363
#	77196
#	92882
#	110780
#	121832
#	138338
#	150345
#	164444
#	181694
#
# Disc length: 2626 seconds
#
# Revision: 1
# Processed by: cddbd v1.5.2PL0 Copyright (c) Steve Scherf et al.
# Submitted via: audiograbber 1.83.01
#
DISCID=9d0a400d
DTITLE=Howlin' Bill - Strike
DYEAR=2006
DGENRE=Roots
TTITLE0=My own World
TTITLE1=Remember the day
TTITLE2=Pick-up lines
TTITLE3=Need a ride
TTITLE4=Strongest man alive
TTITLE5=Pink Cadillac
TTITLE6=Mister X
TTITLE7=Circus is coming to town
TTITLE8=Now you run
TTITLE9=You got it
TTITLE10=This time no lies
TTITLE11=Hell freezes over
TTITLE12=Surfpin
EXTD=2nd album of belgian roots artist Howlin' Bill   http://www.howlinbill.be
EXTT0=
EXTT1=
EXTT2=
EXTT3=
EXTT4=
EXTT5=
EXTT6=
EXTT7=
EXTT8=
EXTT9=
EXTT10=
EXTT11=
EXTT12=
PLAYORDER=
